<mxfile host="Electron" modified="2023-10-19T09:46:19.479Z" agent="Mozilla/5.0 (Windows NT 10.0; Win64; x64) AppleWebKit/537.36 (KHTML, like Gecko) draw.io/22.0.3 Chrome/114.0.5735.289 Electron/25.8.4 Safari/537.36" etag="Xct-16ifJqlxkIrAixRF" version="22.0.3" type="device">
  <diagram name="PÃ¡gina-1" id="RwCs_3Kcu4jkujdT6ZMp">
    <mxGraphModel dx="712" dy="827" grid="1" gridSize="10" guides="1" tooltips="1" connect="1" arrows="1" fold="1" page="1" pageScale="1" pageWidth="827" pageHeight="1169" math="0" shadow="0">
      <root>
        <mxCell id="0" />
        <mxCell id="1" parent="0" />
        <mxCell id="bFMCMidZZxMi9hOuai3X-2" value="Webtrainer" style="whiteSpace=wrap;html=1;align=center;" vertex="1" parent="1">
          <mxGeometry x="450" y="200" width="100" height="40" as="geometry" />
        </mxCell>
        <mxCell id="bFMCMidZZxMi9hOuai3X-4" value="ejericcios" style="whiteSpace=wrap;html=1;align=center;" vertex="1" parent="1">
          <mxGeometry x="330" y="350" width="100" height="40" as="geometry" />
        </mxCell>
        <mxCell id="bFMCMidZZxMi9hOuai3X-5" value="" style="endArrow=none;html=1;rounded=0;exitX=0.5;exitY=0;exitDx=0;exitDy=0;" edge="1" parent="1" source="bFMCMidZZxMi9hOuai3X-4" target="bFMCMidZZxMi9hOuai3X-2">
          <mxGeometry relative="1" as="geometry">
            <mxPoint x="440" y="330" as="sourcePoint" />
            <mxPoint x="600" y="330" as="targetPoint" />
          </mxGeometry>
        </mxCell>
        <mxCell id="bFMCMidZZxMi9hOuai3X-6" value="contiene" style="shape=rhombus;perimeter=rhombusPerimeter;whiteSpace=wrap;html=1;align=center;" vertex="1" parent="1">
          <mxGeometry x="390" y="270" width="100" height="40" as="geometry" />
        </mxCell>
        <mxCell id="bFMCMidZZxMi9hOuai3X-8" value="nivel" style="whiteSpace=wrap;html=1;align=center;" vertex="1" parent="1">
          <mxGeometry x="330" y="565" width="100" height="40" as="geometry" />
        </mxCell>
        <mxCell id="bFMCMidZZxMi9hOuai3X-11" value="" style="endArrow=none;html=1;rounded=0;exitX=0.5;exitY=1;exitDx=0;exitDy=0;entryX=0.5;entryY=0;entryDx=0;entryDy=0;" edge="1" parent="1" source="bFMCMidZZxMi9hOuai3X-16" target="bFMCMidZZxMi9hOuai3X-8">
          <mxGeometry relative="1" as="geometry">
            <mxPoint x="430" y="430" as="sourcePoint" />
            <mxPoint x="590" y="430" as="targetPoint" />
          </mxGeometry>
        </mxCell>
        <mxCell id="bFMCMidZZxMi9hOuai3X-17" value="" style="endArrow=none;html=1;rounded=0;exitX=0.5;exitY=1;exitDx=0;exitDy=0;entryX=0.5;entryY=0;entryDx=0;entryDy=0;" edge="1" parent="1" source="bFMCMidZZxMi9hOuai3X-4" target="bFMCMidZZxMi9hOuai3X-16">
          <mxGeometry relative="1" as="geometry">
            <mxPoint x="380" y="390" as="sourcePoint" />
            <mxPoint x="375" y="510" as="targetPoint" />
          </mxGeometry>
        </mxCell>
        <mxCell id="bFMCMidZZxMi9hOuai3X-16" value="tienen" style="shape=rhombus;perimeter=rhombusPerimeter;whiteSpace=wrap;html=1;align=center;" vertex="1" parent="1">
          <mxGeometry x="335" y="440" width="90" height="40" as="geometry" />
        </mxCell>
        <mxCell id="bFMCMidZZxMi9hOuai3X-23" value="facil" style="ellipse;whiteSpace=wrap;html=1;align=center;" vertex="1" parent="1">
          <mxGeometry x="160" y="660" width="100" height="40" as="geometry" />
        </mxCell>
        <mxCell id="bFMCMidZZxMi9hOuai3X-24" value="medio" style="ellipse;whiteSpace=wrap;html=1;align=center;" vertex="1" parent="1">
          <mxGeometry x="330" y="660" width="100" height="40" as="geometry" />
        </mxCell>
        <mxCell id="bFMCMidZZxMi9hOuai3X-25" value="dificil" style="ellipse;whiteSpace=wrap;html=1;align=center;" vertex="1" parent="1">
          <mxGeometry x="500" y="660" width="100" height="40" as="geometry" />
        </mxCell>
        <mxCell id="bFMCMidZZxMi9hOuai3X-26" value="" style="endArrow=none;html=1;rounded=0;entryX=0.5;entryY=1;entryDx=0;entryDy=0;" edge="1" parent="1" target="bFMCMidZZxMi9hOuai3X-8">
          <mxGeometry relative="1" as="geometry">
            <mxPoint x="200" y="660" as="sourcePoint" />
            <mxPoint x="360" y="660" as="targetPoint" />
          </mxGeometry>
        </mxCell>
        <mxCell id="bFMCMidZZxMi9hOuai3X-27" value="" style="endArrow=none;html=1;rounded=0;entryX=0.42;entryY=-0.05;entryDx=0;entryDy=0;entryPerimeter=0;" edge="1" parent="1" target="bFMCMidZZxMi9hOuai3X-25">
          <mxGeometry relative="1" as="geometry">
            <mxPoint x="380" y="605" as="sourcePoint" />
            <mxPoint x="560" y="550" as="targetPoint" />
          </mxGeometry>
        </mxCell>
        <mxCell id="bFMCMidZZxMi9hOuai3X-28" value="" style="endArrow=none;html=1;rounded=0;" edge="1" parent="1" target="bFMCMidZZxMi9hOuai3X-24">
          <mxGeometry relative="1" as="geometry">
            <mxPoint x="380" y="605" as="sourcePoint" />
            <mxPoint x="542" y="658" as="targetPoint" />
          </mxGeometry>
        </mxCell>
      </root>
    </mxGraphModel>
  </diagram>
</mxfile>
